<svg width="36" height="28" viewBox="0 0 36 28" fill="none" xmlns="http://www.w3.org/2000/svg">
<path d="M33.378 8.7276V8.47426L33.1559 8.59608L18.2754 16.7571C18.1419 16.8303 17.9936 16.8728 17.8415 16.8814C17.6906 16.8899 17.5397 16.8649 17.3997 16.8082L17.2886 16.7559L2.41214 8.59516L2.19 8.4733V8.72667V23.1C2.19 23.8206 2.4771 24.5117 2.98799 25.0211C3.49887 25.5306 4.19169 25.8167 4.914 25.8167H30.654C31.3763 25.8167 32.0691 25.5306 32.58 25.0211C33.0909 24.5117 33.378 23.8206 33.378 23.1V8.7276ZM2.19 6.06573V6.15455L2.26788 6.19726L17.7119 14.6663L17.784 14.7059L17.8561 14.6663L33.3001 6.19632L33.378 6.15361V6.0648V4.9C33.378 4.17936 33.0909 3.48832 32.58 2.97888C32.0691 2.46945 31.3763 2.18333 30.654 2.18333H4.914C4.19169 2.18333 3.49887 2.46945 2.98799 2.97888C2.4771 3.48832 2.19 4.17936 2.19 4.9V6.06573ZM30.654 0.15C33.286 0.15 35.418 2.27658 35.418 4.9V23.1C35.418 25.7234 33.286 27.85 30.654 27.85H4.914C3.65037 27.85 2.43858 27.3495 1.54519 26.4586C0.651816 25.5678 0.15 24.3596 0.15 23.1V4.9C0.15 2.27658 2.28204 0.15 4.914 0.15H30.654Z" fill="black" stroke="#FFFAF3" stroke-width="0.3"/>
</svg>
